<svg xmlns="http://www.w3.org/2000/svg" viewBox="0 0 2000 2141" role="img" aria-label="Alaska Sailing Club">
  <g transform="translate(0.000000,2141.000000) scale(0.100000,-0.100000)" fill="#171915">
    <path d="M5225 21120 c-34 -14 -72 -63 -89 -114 -23 -68 -92 -519 -110 -718
-20 -222 -48 -305 -135 -401 -19 -21 -47 -45 -62 -52 -52 -27 -174 -55 -401
-90 -279 -44 -379 -71 -474 -131 -98 -60 -144 -113 -144 -162 0 -71 56 -105
265 -163 86 -24 160 -54 261 -105 77 -40 179 -86 226 -102 182 -65 248 -114
305 -229 35 -70 38 -84 41 -177 2 -69 -8 -208 -33 -436 -52 -478 -52 -468 -23
-510 21 -31 29 -35 75 -38 79 -5 142 27 205 102 29 33 88 97 133 141 44 44
108 121 142 170 34 50 124 154 200 232 148 152 165 163 263 163 65 0 133 -21
236 -73 49 -25 124 -55 165 -68 116 -35 185 -65 288 -123 151 -85 353 -137
412 -106 27 15 49 63 49 107 0 45 -25 94 -84 167 -39 48 -95 153 -159 296 -13
30 -51 88 -84 128 -35 42 -85 122 -118 187 -68 136 -77 191 -50 300 28 113 52
154 140 240 45 44 110 122 144 173 35 51 121 152 190 226 112 117 131 143 159
210 38 90 43 137 17 166 -27 30 -74 26 -273 -25 -97 -25 -246 -57 -332 -70
-85 -14 -235 -41 -333 -60 -202 -40 -234 -39 -305 10 -73 50 -214 232 -278
360 -31 61 -67 124 -80 140 -83 101 -117 156 -158 256 -56 133 -70 155 -107
175 -31 16 -54 17 -84 4z M7577 19236 c-50 -18 -67 -34 -67 -62 0 -34 52 -68
166 -111 110 -40 126 -49 203 -111 61 -49 124 -83 221 -119 81 -31 140 -64
209 -120 63 -52 106 -74 251 -132 70 -27 130 -60 175 -94 39 -30 125 -86 192
-125 67 -40 152 -95 189 -123 36 -28 113 -77 170 -109 57 -32 131 -82 166
-112 35 -31 118 -88 185 -128 66 -40 154 -101 194 -137 40 -35 105 -85 144
-110 38 -25 99 -74 135 -107 36 -34 98 -83 137 -110 45 -29 91 -70 120 -108
32 -41 75 -78 130 -114 44 -29 125 -95 179 -146 246 -235 377 -369 426 -434
29 -39 82 -95 118 -125 36 -30 87 -84 113 -120 27 -35 77 -93 111 -129 34 -36
79 -91 100 -124 20 -32 68 -90 105 -130 44 -46 84 -103 115 -163 27 -50 82
-133 123 -185 43 -54 94 -134 122 -193 27 -55 77 -138 110 -184 40 -55 77
-123 108 -200 26 -64 67 -152 90 -196 98 -186 124 -244 142 -320 10 -44 33
-139 50 -212 17 -73 51 -183 75 -245 72 -185 101 -322 130 -633 31 -319 40
-517 40 -870 0 -389 -11 -605 -49 -952 -36 -322 -55 -412 -120 -589 -49 -131
-70 -216 -105 -414 -34 -199 -59 -277 -129 -412 -27 -53 -64 -142 -81 -199
-70 -231 -93 -291 -146 -377 -29 -50 -75 -146 -100 -214 -57 -150 -75 -188
-124 -254 -48 -63 -79 -125 -120 -239 -44 -122 -80 -190 -135 -255 -25 -30
-74 -113 -110 -185 -37 -76 -92 -168 -132 -220 -37 -49 -85 -122 -105 -161
-21 -39 -66 -103 -102 -143 -45 -50 -84 -109 -130 -200 -51 -98 -84 -147 -141
-211 -41 -45 -91 -110 -112 -144 -20 -33 -66 -92 -103 -131 -37 -38 -84 -97
-104 -130 -21 -33 -69 -91 -106 -130 -36 -38 -89 -103 -115 -144 -27 -41 -81
-109 -120 -151 -79 -86 -232 -257 -380 -425 -55 -62 -124 -135 -154 -162 -30
-26 -80 -80 -110 -119 -31 -38 -74 -86 -96 -105 -22 -18 -137 -126 -256 -239
-118 -113 -249 -233 -291 -267 -48 -39 -91 -86 -120 -130 -25 -38 -76 -101
-112 -141 -36 -40 -66 -79 -66 -87 0 -24 40 -37 101 -33 47 3 69 12 118 45 37
25 87 47 128 58 250 63 388 110 493 170 102 58 163 80 340 125 132 33 194 56
310 110 164 77 191 87 360 130 140 35 215 62 285 101 84 47 151 69 370 124
142 35 250 69 333 104 179 75 248 96 447 136 215 43 265 57 370 103 148 64
245 92 463 132 243 44 287 56 404 106 117 50 201 69 472 110 306 45 514 84
716 134 280 69 538 96 1057 110 525 15 970 -6 1157 -55 32 -8 114 -41 184 -73
70 -32 174 -76 231 -97 119 -44 179 -85 301 -206 68 -67 94 -101 128 -169 49
-99 178 -265 230 -297 70 -43 136 -21 195 64 17 26 68 86 113 133 58 61 94
110 127 175 26 50 65 113 87 140 90 111 130 168 169 239 23 42 67 104 97 138
40 44 74 99 115 185 32 66 80 150 107 185 69 91 85 121 127 237 24 64 60 137
96 192 77 118 92 148 149 306 27 74 68 167 90 206 70 123 98 191 130 313 45
173 57 206 116 335 71 158 89 219 119 416 46 306 55 356 100 543 54 228 71
353 85 635 16 312 -2 805 -35 1000 -8 44 -32 148 -55 230 -22 83 -58 257 -79
387 -45 264 -70 353 -136 466 -45 77 -76 159 -116 301 -25 88 -51 142 -118
245 -26 41 -72 129 -102 197 -35 82 -76 153 -117 208 -34 46 -92 141 -128 211
-47 92 -84 149 -134 204 -37 42 -87 109 -111 149 -23 39 -66 97 -94 127 -29
30 -77 89 -107 130 -30 42 -85 102 -123 135 -37 33 -85 87 -107 120 -67 100
-466 499 -577 577 -37 25 -100 83 -141 129 -41 45 -99 98 -130 117 -30 19 -84
63 -120 97 -36 34 -97 82 -136 108 -39 25 -100 72 -135 104 -35 33 -116 94
-179 135 -63 41 -148 102 -188 135 -40 33 -117 83 -171 112 -54 28 -128 75
-163 104 -36 29 -110 79 -166 110 -55 32 -143 89 -194 127 -53 40 -125 83
-168 101 -146 60 -201 89 -283 148 -83 60 -164 104 -249 136 -26 9 -91 46
-145 81 -60 39 -149 84 -228 116 -71 29 -157 71 -190 95 -93 66 -180 108 -310
148 -130 41 -185 66 -313 144 -59 35 -130 65 -240 101 -99 32 -199 74 -269
111 -66 35 -177 82 -275 115 -89 30 -206 78 -257 105 -124 66 -171 84 -315
121 -162 40 -218 60 -369 130 -97 45 -172 71 -315 108 -185 47 -255 72 -420
145 -48 21 -161 56 -265 81 -218 53 -285 75 -396 125 -119 55 -214 83 -402
119 -211 40 -334 72 -461 121 -147 56 -288 94 -483 129 -224 41 -307 63 -427
111 -131 52 -211 73 -398 104 -294 49 -416 77 -575 130 -237 79 -414 104 -508
71z M9929 16659 c-20 -20 -21 -29 -16 -103 7 -96 44 -221 98 -329 51 -100 80
-212 123 -466 109 -643 131 -955 93 -1296 -24 -213 -111 -758 -138 -865 -11
-47 -47 -141 -79 -210 -32 -69 -75 -179 -96 -245 -47 -154 -70 -205 -134 -300
-55 -81 -91 -154 -134 -271 -28 -75 -56 -121 -133 -221 -26 -34 -74 -111 -106
-170 -31 -59 -80 -135 -108 -167 -28 -32 -71 -95 -97 -140 -25 -44 -76 -112
-112 -151 -37 -39 -97 -120 -133 -182 -37 -61 -99 -146 -138 -190 -40 -43 -96
-113 -126 -155 -30 -42 -76 -96 -104 -119 -28 -23 -77 -77 -110 -121 -33 -43
-87 -100 -120 -126 -36 -29 -83 -80 -119 -133 -32 -47 -83 -105 -112 -130 -30
-24 -79 -73 -109 -109 -31 -36 -90 -92 -132 -125 -42 -33 -94 -83 -116 -111
-22 -28 -74 -75 -116 -103 -46 -32 -96 -79 -130 -121 -31 -39 -88 -94 -128
-124 -39 -29 -97 -79 -127 -111 -30 -31 -93 -83 -140 -116 -47 -32 -118 -88
-158 -124 -40 -36 -119 -99 -175 -142 -56 -42 -124 -97 -152 -121 -27 -25 -90
-72 -140 -104 -49 -33 -115 -83 -145 -113 -30 -29 -92 -74 -138 -100 -46 -26
-114 -75 -151 -110 -67 -61 -145 -112 -266 -173 -34 -17 -83 -50 -110 -74 -60
-53 -123 -97 -190 -131 -27 -14 -86 -55 -130 -92 -59 -50 -117 -85 -220 -135
-80 -39 -167 -89 -203 -118 -35 -28 -118 -80 -185 -115 -67 -35 -173 -99 -236
-141 -62 -42 -117 -76 -123 -76 -25 0 -224 -104 -309 -162 -62 -43 -132 -79
-204 -107 -60 -23 -129 -56 -154 -73 -123 -84 -152 -101 -226 -129 -167 -63
-192 -75 -265 -125 -95 -64 -144 -89 -295 -147 -66 -26 -169 -76 -230 -112
-82 -49 -144 -76 -250 -111 -77 -25 -168 -61 -202 -80 -35 -19 -92 -50 -128
-70 -36 -20 -144 -62 -240 -94 -115 -38 -205 -76 -262 -109 -63 -36 -134 -64
-250 -100 -179 -55 -236 -80 -315 -140 -85 -64 -149 -87 -333 -121 -185 -34
-268 -64 -280 -101 -20 -63 103 -95 330 -86 147 5 281 28 470 78 214 56 582
109 975 139 407 32 647 61 975 120 214 39 316 49 900 90 306 21 854 32 1365
27 455 -4 566 -8 740 -26 266 -28 408 -58 551 -114 64 -25 166 -59 227 -76
193 -54 215 -64 300 -151 67 -68 85 -80 137 -95 71 -21 173 -16 237 13 24 10
75 50 113 88 39 38 102 88 141 111 70 42 175 130 359 303 51 48 138 124 194
169 56 45 131 112 169 149 37 37 96 88 132 113 37 25 87 73 115 109 27 36 135
151 240 255 104 105 209 214 232 242 24 28 75 77 114 108 50 42 91 88 141 162
39 58 105 141 146 186 41 45 101 117 135 162 33 44 88 109 122 145 35 36 80
92 101 125 21 33 68 92 105 131 43 46 82 99 107 150 22 44 77 127 123 186 46
59 106 147 132 195 26 49 73 120 104 158 30 39 80 120 110 182 30 62 82 149
115 195 74 103 97 147 142 275 40 116 64 165 116 243 53 79 64 103 115 251 25
74 75 193 110 264 58 118 70 152 121 360 31 127 78 291 106 365 58 156 81 256
102 430 54 450 62 1056 21 1570 -26 331 -48 443 -120 620 -23 58 -59 168 -79
245 -73 276 -88 321 -129 395 -68 124 -94 180 -131 287 -43 125 -66 171 -123
248 -52 68 -80 122 -123 230 -44 111 -62 142 -121 216 -30 36 -78 106 -107
156 -30 49 -85 130 -124 179 -38 49 -93 123 -121 164 -27 41 -78 105 -112 141
-34 36 -77 93 -95 125 -53 94 -77 122 -148 169 -45 29 -83 65 -116 110 -69 94
-131 120 -177 74z M16701 5048 c-54 -31 -159 -63 -391 -118 -180 -43 -225 -57
-320 -105 -140 -70 -193 -85 -460 -135 -169 -32 -218 -47 -358 -109 -113 -50
-229 -83 -387 -111 -168 -30 -339 -74 -458 -119 -139 -52 -262 -82 -527 -131
-291 -53 -364 -71 -523 -124 -168 -57 -241 -71 -506 -101 -262 -30 -375 -51
-625 -115 -271 -70 -456 -98 -946 -145 -239 -23 -439 -50 -655 -89 -367 -66
-476 -78 -970 -106 -766 -42 -886 -45 -1835 -45 -949 1 -1109 5 -1785 45 -384
23 -560 41 -752 76 -355 63 -611 104 -758 118 -388 39 -632 81 -826 141 -184
57 -305 83 -535 116 -257 36 -365 62 -499 119 -97 41 -167 61 -492 134 -118
27 -180 47 -270 89 -138 64 -164 73 -383 127 -118 29 -188 53 -245 82 -44 23
-109 56 -145 74 -36 18 -137 53 -225 77 -186 51 -233 70 -336 138 -120 79
-361 169 -451 169 l-38 0 0 -2120 0 -2120 65 0 c36 0 201 -23 368 -51 275 -46
395 -73 650 -143 141 -39 246 -54 717 -96 245 -22 603 -60 795 -85 648 -82
795 -90 1620 -90 845 0 1120 14 1800 95 278 32 465 50 850 80 529 41 638 56
900 125 165 44 386 84 740 135 227 33 299 47 380 76 219 77 280 95 417 119
275 49 353 67 463 107 256 93 308 109 475 143 246 50 280 60 405 117 141 65
155 70 370 129 135 37 214 66 315 114 82 39 195 82 290 111 160 48 183 57 340
142 59 31 137 63 205 82 218 61 242 71 335 135 50 35 119 73 153 85 34 13 105
39 157 58 52 19 140 62 195 95 55 33 161 87 235 119 74 32 167 80 205 107 88
61 128 81 237 119 118 42 172 71 243 132 39 33 108 74 195 116 74 36 166 89
205 118 38 30 112 75 163 101 52 26 133 79 180 117 58 46 130 90 217 132 92
45 148 80 190 118 33 30 98 79 145 109 47 31 113 80 148 110 34 31 112 86 173
124 61 37 143 98 184 135 40 37 105 83 144 104 52 27 88 56 138 113 37 41 100
97 138 123 39 26 86 65 105 85 19 21 69 64 110 97 69 55 146 123 317 283 70
64 178 232 189 292 16 85 -65 110 -165 51z"/>
  </g>
</svg>
